<svg xmlns="http://www.w3.org/2000/svg" width="16" height="17" viewBox="0 0 16 17">
    <path fill="#fff" fill-rule="nonzero" d="M15.86 15.282l-3.888-3.899a6.825 6.825 0 0 0 1.674-4.486c0-3.775-3.062-6.841-6.822-6.841C3.06.056.002 3.126.002 6.897c0 3.771 3.061 6.841 6.822 6.841 1.71 0 3.274-.633 4.474-1.679l3.888 3.9a.467.467 0 0 0 .674 0 .482.482 0 0 0 0-.677zM.956 6.897c0-3.245 2.632-5.88 5.864-5.88 3.236 0 5.865 2.639 5.865 5.88 0 3.24-2.63 5.884-5.865 5.884-3.232 0-5.864-2.64-5.864-5.884z"/>
</svg>
