<svg xmlns="http://www.w3.org/2000/svg" width="16" height="16" viewBox="0 0 16 16">
    <g fill="#4099d5" fill-rule="nonzero">
        <path d="M15.43 14.545H.556c-.312 0-.557.337-.557.728 0 .39.258.727.557.727h14.886c.312 0 .557-.337.557-.727 0-.39-.258-.728-.57-.728zM.014 9.818L0 12.511c0 .152.055.304.166.414.11.11.25.166.401.166l2.685-.014c.152 0 .29-.055.401-.166l9.272-9.252a.583.583 0 0 0 0-.814L10.268.165a.586.586 0 0 0-.817 0L7.597 2.03.18 9.418a.614.614 0 0 0-.166.4zm9.853-8.437l1.868 1.864-1.052 1.05L8.815 2.43l1.052-1.05zm-8.705 8.686l6.836-6.822L9.867 5.11 3.03 11.917l-1.882.014.013-1.864z"/>
    </g>
</svg>
