<svg xmlns="http://www.w3.org/2000/svg" width="20" height="15" viewBox="0 0 20 15">
    <g fill="#4099d5" fill-rule="nonzero">
        <path d="M17.558 0H2.446C1.096 0 0 1.08 0 2.41v10.18C0 13.92 1.097 15 2.446 15h15.108C18.904 15 20 13.92 20 12.59V2.414C20.004 1.084 18.907 0 17.558 0zm1.329 12.59a1.32 1.32 0 0 1-1.329 1.309H2.446a1.32 1.32 0 0 1-1.329-1.31V2.415c0-.722.596-1.309 1.329-1.309h15.108a1.32 1.32 0 0 1 1.329 1.31V12.59h.004z"/>
        <path d="M12.962 7.06l4.966-4.24c.23-.2.252-.54.042-.763a.59.59 0 0 0-.802-.04L10.32 7.868 8.984 6.732c-.004-.004-.008-.008-.008-.012a.83.83 0 0 0-.093-.076L3.447 2.013a.586.586 0 0 0-.802.044.521.521 0 0 0 .046.764l5.024 4.275-5.003 4.46a.524.524 0 0 0-.025.764.594.594 0 0 0 .802.028l5.08-4.524 1.377 1.172a.584.584 0 0 0 .756-.004l1.416-1.208 5.05 4.568c.109.1.252.148.39.148a.58.58 0 0 0 .412-.168.524.524 0 0 0-.021-.764L12.962 7.06z"/>
    </g>
</svg>
