<svg xmlns="http://www.w3.org/2000/svg" width="14.4" height="11" viewBox="0 0 18 14">
    <g fill="#000" fill-rule="nonzero">
        <path d="M10.506 9.412H6.704a.514.514 0 0 0-.52.507v1.137c0 .28.234.507.52.507h3.802c.286 0 .52-.227.52-.507V9.92a.514.514 0 0 0-.52-.507zm-.149 1.5H6.853v-.848h3.504v.847z"/>
        <path d="M17.307 6.546l.006-.003-2.54-5.066a1.192 1.192 0 0 0-1.07-.664h-.483V.342A.34.34 0 0 0 12.881 0H4.598a.34.34 0 0 0-.339.342v.47h-.483c-.454 0-.864.255-1.07.665L.166 6.543l.006.003c-.11.18-.172.393-.172.619v5.352c0 .66.532 1.197 1.186 1.197h15.107c.654 0 1.186-.537 1.186-1.197V7.165c0-.226-.063-.439-.172-.62zM13.22 1.572h.483c.169 0 .322.095.398.247l2.08 4.15h-1.414V4.691a.34.34 0 0 0-.339-.342h-.419V2.517a.34.34 0 0 0-.339-.342h-.45v-.603zm.87 3.461v.935h-1.788a.782.782 0 0 0-.712.464l-.488 1.093a.029.029 0 0 1-.027.017H6.404a.029.029 0 0 1-.027-.017L5.89 6.433a.782.782 0 0 0-.712-.465H3.39v-.935h10.7zM4.936.683h7.605v1.492H4.937V.683zm8.395 2.175V4.35H4.147V2.858h9.185zM3.378 1.82a.444.444 0 0 1 .398-.247h.483v.603h-.45a.34.34 0 0 0-.339.342V4.35h-.42a.34.34 0 0 0-.338.342v1.276H1.298l2.08-4.149zm12.915 11.136H1.186a.436.436 0 0 1-.433-.438V7.165c0-.241.194-.437.433-.437h3.991c.011 0 .022.006.026.017l.488 1.092a.782.782 0 0 0 .713.464h4.671a.782.782 0 0 0 .713-.464l.488-1.092a.029.029 0 0 1 .026-.017h3.99c.24 0 .434.196.434.437v5.352a.436.436 0 0 1-.433.438z"/>
    </g>
</svg>
