<svg xmlns="http://www.w3.org/2000/svg" width="16" height="16" viewBox="0 0 16 16">
    <path fill="#4099D5" fill-rule="evenodd" d="M15.96 10.176l-.793 1.911a.51.51 0 0 1-.665.277l-.902-.373c-.412-.171-1.007-.05-1.319.262-.344.344-.462.934-.29 1.347l.373.9a.506.506 0 0 1-.276.666l-1.91.794a.51.51 0 0 1-.665-.276l-.374-.903c-.171-.413-.678-.748-1.12-.748-.485 0-.986.334-1.158.748l-.374.903a.506.506 0 0 1-.666.276L3.91 15.17a.51.51 0 0 1-.276-.665l.373-.901c.17-.412.049-1.007-.264-1.319-.343-.344-.933-.462-1.346-.29l-.902.373a.505.505 0 0 1-.665-.277l-.79-1.914a.511.511 0 0 1 .277-.667l.903-.373c.413-.172.748-.677.748-1.117 0-.484-.334-.983-.748-1.155l-.903-.373a.506.506 0 0 1-.276-.667l.793-1.911a.51.51 0 0 1 .665-.278l.9.372c.413.17 1.008.049 1.32-.264.344-.343.462-.933.29-1.346l-.372-.9A.505.505 0 0 1 3.912.83L5.822.04a.51.51 0 0 1 .665.276l.374.903c.171.413.678.748 1.12.748.485 0 .986-.334 1.158-.748l.374-.903c.107-.26.4-.386.666-.276L12.09.83a.51.51 0 0 1 .276.665l-.37.895c-.172.416-.052 1.013.26 1.325.344.344.932.463 1.353.288l.896-.371c.26-.108.555.01.665.277l.79 1.914a.511.511 0 0 1-.277.667l-.903.373c-.413.172-.748.677-.748 1.117 0 .484.334.983.748 1.155l.903.373c.26.108.386.4.276.667zM8 4a4 4 0 1 0 0 8 4 4 0 0 0 0-8zm0 6a2 2 0 1 1 0-4 2 2 0 0 1 0 4z"/>
</svg>
