<svg xmlns="http://www.w3.org/2000/svg" width="25" height="24" viewBox="0 0 25 24">
    <g fill="#FFF" fill-rule="evenodd">
        <path d="M9.189 1.744l-.145.268c-.458.866-.918 1.73-1.372 2.599-.142.273-.346.44-.655.488-.538.086-1.074.188-1.61.284l-1.592.283c.009.084.014.148.023.211.14 1.004.275 2.008.423 3.01.049.33-.05.585-.279.819-.684.7-1.36 1.409-2.04 2.115-.06.064-.12.13-.183.2l.179.189c.685.71 1.368 1.424 2.057 2.132.222.227.315.48.266.799-.101.662-.188 1.327-.28 1.99l-.17 1.236c1.062.189 2.093.38 3.127.55.354.059.59.224.754.543.449.87.912 1.734 1.37 2.6.04.075.086.149.132.229.975-.478 1.928-.939 2.872-1.414.303-.152.58-.156.882-.002.726.369 1.46.722 2.19 1.08.224.11.45.216.689.33.053-.091.1-.166.14-.244.462-.873.926-1.745 1.383-2.62.138-.266.338-.433.633-.484l1.467-.256 1.746-.31c0-.063.004-.104-.001-.144-.139-.979-.27-1.959-.423-2.935-.066-.416.03-.737.332-1.039.729-.725 1.432-1.476 2.158-2.228-.064-.07-.123-.137-.184-.201-.685-.712-1.367-1.426-2.057-2.133-.215-.221-.312-.466-.263-.776.069-.444.124-.89.186-1.335l.266-1.903c-.087-.019-.156-.037-.226-.05-.985-.174-1.97-.354-2.956-.52-.327-.055-.54-.223-.691-.515-.454-.876-.92-1.747-1.382-2.62-.04-.076-.086-.15-.13-.225-.93.456-1.843.886-2.738 1.352-.401.209-.747.212-1.15.002-.9-.47-1.82-.9-2.748-1.355zM0 11.86c.12-.172.22-.363.363-.513.746-.789 1.5-1.57 2.258-2.347a.386.386 0 0 0 .123-.365c-.16-1.1-.305-2.201-.462-3.301-.09-.63.132-.926.765-1.034 1.082-.184 2.162-.382 3.245-.564.155-.027.236-.095.307-.23.516-.992 1.04-1.98 1.563-2.968.274-.518.623-.63 1.152-.371.994.486 1.99.971 2.98 1.465a.43.43 0 0 0 .43.001c.983-.491 1.97-.974 2.956-1.457.556-.273.9-.162 1.187.381.516.974 1.036 1.945 1.541 2.924.085.165.19.236.365.265 1.067.18 2.131.373 3.198.556.645.11.856.4.763 1.056-.155 1.1-.31 2.201-.453 3.303-.013.1.035.241.105.315.757.8 1.525 1.59 2.289 2.385.468.487.464.83-.01 1.323-.759.788-1.52 1.574-2.27 2.37a.468.468 0 0 0-.11.337c.146 1.126.304 2.25.465 3.375.074.514-.167.86-.675.948-1.13.196-2.26.39-3.388.6-.097.018-.206.123-.256.217-.523.97-1.033 1.946-1.549 2.92-.301.569-.643.678-1.222.395-.987-.483-1.975-.963-2.958-1.453a.379.379 0 0 0-.383 0c-.998.497-2 .986-3.001 1.476-.522.256-.885.139-1.156-.372-.523-.988-1.047-1.975-1.562-2.967-.077-.147-.172-.208-.334-.236-1.114-.188-2.227-.387-3.34-.585-.492-.087-.73-.439-.657-.94.161-1.124.312-2.25.478-3.373.023-.16-.023-.256-.127-.364-.74-.76-1.477-1.524-2.207-2.294-.154-.162-.276-.356-.413-.535v-.343z"/>
        <path d="M13.256 9.406v5.995c0 .47.002.941 0 1.412-.004.462-.307.788-.726.787-.422-.001-.721-.325-.721-.79-.002-2.36 0-4.72 0-7.081v-.322c-.089.08-.144.127-.195.177-.433.428-.863.858-1.299 1.284-.212.207-.469.278-.754.185-.276-.09-.436-.293-.484-.574a.674.674 0 0 1 .206-.612c.907-.904 1.815-1.81 2.73-2.706.31-.303.728-.304 1.038 0 .916.896 1.826 1.798 2.729 2.707.298.3.287.73.006 1.01a.715.715 0 0 1-1.02.003c-.436-.413-.856-.843-1.284-1.265-.06-.059-.123-.115-.226-.21"/>
    </g>
</svg>
