<svg xmlns="http://www.w3.org/2000/svg" width="24" height="19" viewBox="0 0 24 19">
    <g fill="#FFF" fill-rule="nonzero">
        <path d="M14.007 12.549H8.94a.685.685 0 0 0-.693.676v1.516c0 .373.311.676.693.676h5.069a.685.685 0 0 0 .692-.676v-1.516a.685.685 0 0 0-.693-.676zm-.197 2H9.137v-1.131h4.673v1.13z"/>
        <path d="M23.077 8.728l.007-.004-3.387-6.755a1.59 1.59 0 0 0-1.427-.885h-.643V.456A.454.454 0 0 0 17.175 0H6.13a.454.454 0 0 0-.451.456v.628h-.644a1.59 1.59 0 0 0-1.427.885L.221 8.724l.008.004A1.597 1.597 0 0 0 0 9.553v7.137c0 .88.71 1.596 1.582 1.596h20.142a1.59 1.59 0 0 0 1.581-1.596V9.553c0-.302-.083-.584-.228-.825zm-5.45-6.632h.643c.226 0 .43.126.531.33l2.774 5.532h-1.886V6.255a.454.454 0 0 0-.452-.455h-.558V3.356a.454.454 0 0 0-.452-.456h-.6v-.804zm1.159 4.615v1.247h-2.383c-.41 0-.782.243-.95.619l-.65 1.456a.038.038 0 0 1-.036.022H8.538a.038.038 0 0 1-.035-.022l-.65-1.456a1.043 1.043 0 0 0-.95-.62H4.52V6.712h14.266zM6.582.911h10.141V2.9H6.582V.91zm11.193 2.9V5.8H5.53V3.81h12.245zM4.504 2.426a.592.592 0 0 1 .531-.33h.644V2.9h-.6a.454.454 0 0 0-.452.456V5.8h-.56a.454.454 0 0 0-.45.455v1.703H1.73l2.774-5.532zm17.22 14.847H1.582a.581.581 0 0 1-.578-.583V9.553c0-.321.259-.583.578-.583h5.32c.016 0 .03.009.036.023l.65 1.456c.168.376.541.619.95.619h6.23c.408 0 .781-.243.949-.62l.65-1.455a.038.038 0 0 1 .035-.023h5.321c.32 0 .579.262.579.583v7.137c0 .322-.26.583-.578.583z"/>
    </g>
</svg>
