<svg xmlns="http://www.w3.org/2000/svg" width="62" height="36" viewBox="0 0 62 36">
    <g fill="#E9E9E9" fill-rule="evenodd">
        <text font-family="ProximaNova-Semibold, Proxima Nova" font-size="12" font-weight="500" letter-spacing="2">
            <tspan x="0" y="35">ARCHIVE</tspan>
        </text>
        <g fill-rule="nonzero">
            <path d="M34.257 10.98h-4.435a.6.6 0 0 0-.606.592v1.327a.6.6 0 0 0 .606.591h4.435a.6.6 0 0 0 .606-.591v-1.327a.6.6 0 0 0-.606-.592zm-.174 1.75h-4.088v-.99h4.088v.99z"/>
            <path d="M42.192 7.637l.006-.004-2.963-5.91a1.391 1.391 0 0 0-1.249-.775h-.563v-.55A.397.397 0 0 0 37.028 0h-9.664a.397.397 0 0 0-.395.399v.55h-.563c-.53 0-1.01.296-1.249.774l-2.963 5.91.006.004c-.127.21-.2.458-.2.722v6.245c0 .77.62 1.396 1.384 1.396h17.624c.763 0 1.384-.626 1.384-1.396V8.359c0-.264-.073-.511-.2-.722zm-4.769-5.803h.563c.198 0 .376.11.465.289l2.427 4.84h-1.65v-1.49a.397.397 0 0 0-.395-.398h-.49V2.936a.397.397 0 0 0-.394-.399h-.526v-.703zm1.015 4.038v1.09h-2.086a.913.913 0 0 0-.83.543l-.57 1.274a.033.033 0 0 1-.03.02H29.47a.033.033 0 0 1-.03-.02l-.57-1.274a.913.913 0 0 0-.831-.542h-2.085v-1.09h12.483zM27.759.797h8.874v1.74h-8.874V.797zm9.794 2.538v1.74H26.84v-1.74h10.714zM25.941 2.123a.518.518 0 0 1 .465-.289h.563v.703h-.526a.397.397 0 0 0-.395.4v2.138h-.489a.397.397 0 0 0-.395.398v1.49h-1.65l2.427-4.84zm15.067 12.991H23.384a.509.509 0 0 1-.506-.51V8.359c0-.281.227-.51.506-.51h4.656c.013 0 .025.008.03.02l.57 1.274c.147.329.473.541.83.541h5.451a.913.913 0 0 0 .831-.541l.57-1.274a.033.033 0 0 1 .03-.02h4.656c.279 0 .506.229.506.51v6.245c0 .281-.227.51-.506.51z"/>
        </g>
    </g>
</svg>
