<svg xmlns="http://www.w3.org/2000/svg" width="21" height="16" viewBox="0 0 21 16">
    <g fill="#4099D5" fill-rule="nonzero">
        <path d="M12.257 10.98H7.822a.6.6 0 0 0-.606.592v1.327a.6.6 0 0 0 .606.591h4.435a.6.6 0 0 0 .606-.591v-1.327a.6.6 0 0 0-.606-.592zm-.174 1.75H7.995v-.99h4.088v.99z"/>
        <path d="M20.192 7.637l.006-.004-2.963-5.91a1.391 1.391 0 0 0-1.249-.775h-.563v-.55A.397.397 0 0 0 15.028 0H5.364a.397.397 0 0 0-.395.399v.55h-.563c-.53 0-1.01.296-1.249.774L.194 7.633l.006.004c-.127.21-.2.458-.2.722v6.245C0 15.374.62 16 1.384 16h17.624c.763 0 1.384-.626 1.384-1.396V8.359c0-.264-.073-.511-.2-.722zm-4.769-5.803h.563c.198 0 .376.11.465.289l2.427 4.84h-1.65v-1.49a.397.397 0 0 0-.395-.398h-.49V2.936a.397.397 0 0 0-.394-.399h-.526v-.703zm1.015 4.038v1.09h-2.086a.913.913 0 0 0-.83.543l-.57 1.274a.033.033 0 0 1-.03.02H7.47a.033.033 0 0 1-.03-.02l-.57-1.274a.913.913 0 0 0-.831-.542H3.955v-1.09h12.483zM5.759.797h8.874v1.74H5.759V.797zm9.794 2.538v1.74H4.84v-1.74h10.714zM3.941 2.123a.518.518 0 0 1 .465-.289h.563v.703h-.526a.397.397 0 0 0-.395.4v2.138H3.56a.397.397 0 0 0-.395.398v1.49h-1.65l2.427-4.84zm15.067 12.991H1.384a.509.509 0 0 1-.506-.51V8.359c0-.281.227-.51.506-.51H6.04c.013 0 .025.008.03.02l.57 1.274c.147.329.473.541.83.541h5.451a.913.913 0 0 0 .831-.541l.57-1.274a.033.033 0 0 1 .03-.02h4.656c.279 0 .506.229.506.51v6.245c0 .281-.227.51-.506.51z"/>
    </g>
</svg>
