<svg xmlns="http://www.w3.org/2000/svg" width="24" height="9" viewBox="0 0 24 9">
    <path fill="#33333A" fill-rule="nonzero" d="M23.4 6.4l.015-.009c.24-.168.416-.438.505-.754.09-.303.101-.648.013-.982-.235-.88-1.079-1.58-2.517-1.963a27.087 27.087 0 0 1-3.798-1.321 1.63 1.63 0 0 0-2.11.765c-.096.192-.295.335-.629.459-2.47.916-6.49.974-9.033-.503A3.87 3.87 0 0 1 4.68 1.057C3.19-.933-.03.22.05 2.706c.04 1.268.282 2.2.796 2.704v1.414c0 .115.049.224.135.3a2.3 2.3 0 0 0 .224.17 4.388 4.388 0 0 0 2.434.729c.811 0 1.762-.044 3.028-.13.3-.02.608-.042 1.014-.072 2.337-.17 2.856-.203 3.534-.199.218.001.489.022.864.062.23.025 1.184.14 1.15.136 1.984.232 3.519.288 4.994.074l.019-.003.164-.026.07-.011.114-.02.099-.018.084-.016.122-.024.06-.012.168-.037.016-.003a12.474 12.474 0 0 0 .988-.268l.165-.052.024-.008.049-.015.07-.023.02-.006.075-.023.008-.002a9.455 9.455 0 0 1 .445-.127c.083-.02.164-.042.244-.062.956-.248 1.717-.484 2.09-.685l.013-.008a.947.947 0 0 0 .038-.023l.033-.021zm-.464-.649c-.295.16-1.034.387-1.925.618a37.023 37.023 0 0 1-.302.078c-.125.033-.251.07-.401.115l-.01.003-.077.024-.024.008-.072.022-.022.007-.03.01a.51.51 0 0 0-.028.009l-.112.035-.05.017a9.976 9.976 0 0 1-.922.249l-.034.007-.138.03-.065.013-.108.022-.094.017-.078.014-.133.023-.04.006c-.057.01-.115.018-.172.026h-.002c-1.394.201-2.863.148-4.777-.077.04.005-.92-.11-1.156-.136a9.48 9.48 0 0 0-.945-.067c-.71-.004-1.227.028-3.597.202-.405.03-.71.051-1.01.071-1.25.085-2.185.128-2.975.128a3.596 3.596 0 0 1-1.58-.36 3.169 3.169 0 0 1-.414-.239v-.673l.066.033c.567.275 1.214.44 1.928.44.812 0 1.763-.044 3.03-.13.3-.02.607-.042 1.013-.072 2.337-.17 2.856-.203 3.534-.199.217.001.489.021.864.062.23.025 1.181.14 1.149.136 2.644.31 4.492.305 6.462-.234.147-.04.293-.084.437-.13l.05-.016.168-.053c.27-.086.453-.14.638-.187.955-.242 1.742-.474 2.187-.676l.003.013c.024.132.025.26.007.375-.038.209-.134.377-.243.436zM4.042 1.536c.386.516.86.93 1.403 1.245 2.78 1.615 7.039 1.554 9.712.562.506-.188.861-.443 1.064-.85a.832.832 0 0 1 1.078-.39c1.16.503 2.478.977 3.912 1.36.725.193 1.237.46 1.56.769-.394.166-1.135.383-1.985.598-.203.051-.4.11-.683.2l-.17.053-.05.016a9.976 9.976 0 0 1-.405.12c-1.847.506-3.608.51-6.158.211.037.005-.92-.11-1.156-.136a9.49 9.49 0 0 0-.945-.067c-.71-.004-1.227.028-3.597.201-.405.03-.71.052-1.01.072-1.25.085-2.185.128-2.975.128a3.595 3.595 0 0 1-1.58-.36 3.156 3.156 0 0 1-.421-.244 1.584 1.584 0 0 1-.128-.096l-.01-.008-.018-.014C1.114 4.636.884 3.848.846 2.68.792.97 3.021.172 4.042 1.536z"/>
</svg>
