<svg xmlns="http://www.w3.org/2000/svg" width="12" height="24" viewBox="0 0 12 24">
    <path fill="#4099D5" fill-rule="nonzero" d="M11.892 22.3c-.186-.439-.634-.693-1.124-.7-1.17-.017-2.482-.884-2.784-2.097-.06-.24-.113-.501-.16-.778-.1-.594-.164-1.234-.2-1.875a19.463 19.463 0 0 1-.028-.85l.008-.12a602.698 602.698 0 0 0 .116-1.9l.074-1.238c.282-4.728.501-8.818.575-11.094l.001-.016a129.934 129.934 0 0 1 .005-.168v-.005l.007-.23A1.198 1.198 0 0 0 7.182 0v.001H1.206a1.2 1.2 0 0 0-1.2 1.225 37.21 37.21 0 0 0 .25 3.611c.005.036.303 2.365.398 3.139.08.65.15 1.247.214 1.816.134 1.199.234 2.243.297 3.147v.015a8.833 8.833 0 0 1 .02.581l.001.073c0 .025.004.05.009.075a12.623 12.623 0 0 1-.33 3.027c-.033.14-.068.279-.12.48-.177.688-.213.837-.268 1.151a4.93 4.93 0 0 0-.081.86c0 .434.048 1.127.134 2.015a76.452 76.452 0 0 0 .206 1.913 91.167 91.167 0 0 0 .063.522.4.4 0 0 0 .397.35h1.2a.4.4 0 0 0 .4-.4v-2.62c.039.024.08.05.121.078.559.377 1.218 1.076 1.966 2.18.322.475.855.762 1.426.762h4.487c.86 0 1.447-.872 1.096-1.7zM7.182.8h.01a.398.398 0 0 1 .39.408 66.51 66.51 0 0 1-.012.403v.01c-.046 1.4-.15 3.563-.3 6.289a873.384 873.384 0 0 1-.275 4.791c-.025.425-.05.854-.077 1.287-.517-.03-1.156-.121-1.997-.272a72.26 72.26 0 0 1-.589-.11c-1.389-.26-1.938-.359-2.35-.392a13.994 13.994 0 0 0-.018-.32l-.001-.011a77.776 77.776 0 0 0-.3-3.18C1.6 9.13 1.528 8.53 1.448 7.876c-.095-.776-.393-3.106-.398-3.14l-.01-.084C.951 3.894.878 2.631.824 1.213a.398.398 0 0 1 .4-.413h5.958zm3.614 22.4H6.309a.925.925 0 0 1-.764-.411c-.8-1.183-1.53-1.954-2.18-2.394-.427-.288-.756-.395-.97-.395a.4.4 0 0 0-.4.4v2.8H1.55a104.932 104.932 0 0 1-.224-2.062c-.083-.863-.13-1.538-.13-1.938 0-.226.023-.46.069-.721.05-.285.084-.427.255-1.09.053-.207.09-.35.124-.498.22-.94.337-1.902.35-2.871.38.037.932.136 2.19.373.232.044.416.078.595.11.87.156 1.534.25 2.09.284a1402.753 1402.753 0 0 1-.063 1.044l-.01.144a20.454 20.454 0 0 0 .03.92c.037.667.104 1.336.21 1.962.05.297.106.577.172.84.398 1.595 2.04 2.68 3.548 2.703.194.003.348.09.4.211.126.299-.07.589-.36.589z"/>
</svg>
