<svg xmlns="http://www.w3.org/2000/svg" width="24" height="16" viewBox="0 0 24 16">
    <path fill="#4099D5" fill-rule="nonzero" d="M23.91 12.33c.341-1.322-.92-2.893-2.846-3.194a13.012 13.012 0 0 0-.297-.042c-.208-.027-.36-.045-.746-.086-2.191-.235-3.01-.577-3.77-1.957-.199-.362-.39-.756-.577-1.186-.176-.404-.344-.83-.529-1.327a221.76 221.76 0 0 1-.44-1.215c-.357-.983-.556-1.421-.818-1.678a.898.898 0 0 0-.094-.081c-.683-.505-2.262-.4-3.181.094-1.392.748-4.093 1.129-5.238.236A23.045 23.045 0 0 0 2.869.202a12.209 12.209 0 0 0-.24-.138.399.399 0 0 0-.521.123l-.343.496C.02 3.216-.465 4.948.463 7.753c.448 1.354.754 2.414.98 3.457.369 1.7.594 2.998.594 3.564 0 .22.179.399.4.399h2.791c.22 0 .4-.179.4-.4v-5.71l.148.088.022.013.118.074.031.019a13.6 13.6 0 0 1 .264.17l.033.021.125.084.025.017.152.105h.001l.163.115c.864.618 1.73 1.354 2.568 2.216a20.804 20.804 0 0 1 1.862 2.202 2.924 2.924 0 0 0 .742.703c.153.103.318.195.495.277l.037.017c.02.01.04.017.06.025l.086.037.01.004c.394.156.84.261 1.345.309 1.208.114 2.75-.1 4.679-.731l.163-.053a541.065 541.065 0 0 1 2.305-.737 68.258 68.258 0 0 1 1.436-.446c.189-.064.409-.161.614-.287.196-.12.364-.256.498-.41.139-.16.24-.34.295-.542l.006-.023zm-1.214.295a2.37 2.37 0 0 1-.532.237c-.216.062-.687.208-1.354.42-.156.048-.322.101-.498.157l-.038.012a554.265 554.265 0 0 0-1.762.565l-.165.053c-1.802.589-3.204.791-4.272.706a5.315 5.315 0 0 1-.155-.014l-.011-.002a3.935 3.935 0 0 1-1.11-.277l-.027-.011-.035-.016a2.83 2.83 0 0 1-.412-.227 2.128 2.128 0 0 1-.38-.323c-.041-.044-.121-.141-.165-.194a21.923 21.923 0 0 0-1.931-2.283A19.738 19.738 0 0 0 7.173 9.12l-.067-.048-.079-.055-.08-.056-.044-.03c1.55.293 2.892 1.1 4.402 2.907.076.086.148.163.245.25.154.138.334.27.546.393 1.369.792 3.472.904 6.493-.045l.168-.054a561.012 561.012 0 0 1 1.759-.564l.038-.012a96.493 96.493 0 0 1 1.83-.57c.138-.04.306-.105.477-.189.242.358.343.74.288 1.034a.614.614 0 0 1-.16.31 1.35 1.35 0 0 1-.293.234zm-19.881 1.75c-.065-.723-.276-1.876-.592-3.335-.233-1.074-.546-2.159-1.003-3.538C.385 4.98.804 3.483 2.422 1.136l.133-.193a22.268 22.268 0 0 1 2.328 1.58c1.466 1.143 4.466.72 6.107-.163.674-.362 1.935-.446 2.328-.155.224.219 1.424 3.517 1.625 3.978.196.452.398.867.61 1.253.92 1.672 1.956 2.105 4.383 2.365.379.04.528.058.727.084.097.013.19.026.278.04.513.08.959.268 1.314.514a582.543 582.543 0 0 0-3.742 1.183l-.165.053c-2.819.886-4.693.786-5.852.116a2.26 2.26 0 0 1-.595-.483C9.725 8.702 7.78 7.996 5.248 7.993H5.223l-.033.001a.384.384 0 0 0-.327.237l-.005.013a.42.42 0 0 0-.024.087l-.001.012a.414.414 0 0 0-.003.067v5.965H2.815z"/>
</svg>
