<svg xmlns="http://www.w3.org/2000/svg" width="19" height="20" viewBox="0 0 19 20">
    <path fill="#33333A" fill-rule="nonzero" d="M5.278 13.168h10.98a2.27 2.27 0 0 0 2.26-2.268V6.263v-.016-.033c0-.009 0-.017-.004-.025 0-.008-.004-.02-.004-.029 0-.008-.004-.016-.004-.024-.004-.009-.004-.017-.008-.03-.004-.007-.004-.016-.008-.024s-.004-.016-.008-.025a.2.2 0 0 1-.013-.028c-.004-.009-.008-.017-.012-.02l-.012-.026-.012-.02c-.005-.008-.013-.017-.017-.025-.004-.008-.008-.012-.016-.02-.004-.009-.013-.013-.017-.02-.004-.01-.012-.013-.016-.021-.004-.009-.012-.013-.016-.017l-.02-.02c-.01-.004-.013-.013-.021-.017-.009-.004-.017-.012-.025-.016s-.012-.008-.02-.013c-.009-.004-.017-.008-.025-.016l-.025-.012-.024-.013-.025-.012c-.008-.004-.016-.004-.024-.008a.076.076 0 0 0-.029-.008c-.008 0-.016-.005-.02-.005-.013-.004-.02-.004-.033-.004-.004 0-.008-.004-.017-.004L4.127 3.784V1.836c0-.02 0-.041-.004-.057 0-.005 0-.009-.004-.017 0-.012-.004-.025-.004-.037-.004-.012-.004-.02-.009-.033 0-.008-.004-.012-.004-.02l-.012-.037-.004-.017a.123.123 0 0 0-.016-.033c-.004-.004-.004-.012-.009-.016-.004-.008-.008-.017-.016-.025l-.012-.02c-.004-.009-.008-.013-.013-.02-.004-.01-.012-.017-.016-.026l-.012-.012-.025-.025-.012-.012a.178.178 0 0 0-.029-.025l-.016-.012c-.008-.008-.016-.012-.025-.02a.378.378 0 0 0-.032-.021c-.005-.004-.009-.004-.013-.008l-.053-.025L.769.044a.555.555 0 1 0-.43 1.023l2.678 1.135V14.36c0 1.15.86 2.104 1.97 2.248A2.239 2.239 0 0 0 6.9 20a2.241 2.241 0 0 0 1.924-3.37h4.972A2.239 2.239 0 0 0 15.721 20a2.241 2.241 0 0 0 0-4.48H5.278a1.158 1.158 0 0 1-1.155-1.16v-1.504a2.28 2.28 0 0 0 1.155.312zm2.752 4.588a1.13 1.13 0 0 1-1.126 1.13c-.619 0-1.127-.51-1.127-1.13 0-.621.508-1.13 1.127-1.13a1.13 1.13 0 0 1 1.126 1.13zm8.822 0a1.13 1.13 0 0 1-1.127 1.13c-.618 0-1.126-.51-1.126-1.13 0-.621.508-1.13 1.126-1.13a1.13 1.13 0 0 1 1.127 1.13zm-.594-5.697H5.278a1.158 1.158 0 0 1-1.155-1.16V4.903l13.29 1.838v4.155a1.16 1.16 0 0 1-1.155 1.164z"/>
</svg>
