<svg xmlns="http://www.w3.org/2000/svg" width="19" height="20" viewBox="0 0 19 20">
    <path fill="#4099D5" fill-rule="nonzero" d="M5.278 13.168a2.28 2.28 0 0 1-1.155-.312v1.505c0 .637.516 1.159 1.155 1.159H15.72a2.241 2.241 0 0 1 0 4.48 2.239 2.239 0 0 1-1.925-3.37H8.824c.197.328.308.719.308 1.13A2.241 2.241 0 0 1 6.9 20a2.239 2.239 0 0 1-1.913-3.391 2.269 2.269 0 0 1-1.97-2.248V2.202L.34 1.067A.555.555 0 0 1 .769.044l3.018 1.274.053.025c.004.004.008.004.013.008l.032.02c.009.009.017.013.025.021l.016.012c.013.009.02.017.029.025l.012.012.025.025.012.012c.004.009.012.017.016.025.005.008.009.012.013.02l.012.021c.008.008.012.017.016.025.005.004.005.012.009.016.008.013.012.02.016.033l.004.017.012.037c0 .008.004.012.004.02.005.013.005.02.009.033 0 .012.004.025.004.037a.254.254 0 0 1 .008.074v1.948l13.916 1.928c.009 0 .013.004.017.004.012 0 .02 0 .033.004.004 0 .012.005.02.005s.02.004.029.008c.008.004.016.004.024.008l.025.012.024.013.025.012c.008.008.016.012.025.016.008.005.012.009.02.013s.016.012.025.016c.008.004.012.013.02.017l.02.02c.005.004.013.008.017.017.004.008.012.012.016.02s.013.012.017.02c.008.009.012.013.016.021.004.008.012.017.017.025l.012.02.012.025c.004.004.008.012.012.02a.2.2 0 0 0 .013.03c.004.008.004.016.008.024s.004.017.008.025c.004.012.004.02.008.029 0 .008.004.016.004.024s.004.02.004.029c.005.008.005.016.005.025V10.9a2.27 2.27 0 0 1-2.261 2.268H5.278z"/>
</svg>
