<svg xmlns="http://www.w3.org/2000/svg" width="18" height="18" viewBox="0 0 18 18">
    <path fill="#4099d5" fill-rule="evenodd" d="M16.875 14.625h-2.25v2.25a1.125 1.125 0 0 1-2.25 0v-2.25h-2.25a1.125 1.125 0 0 1 0-2.25h2.25v-2.25a1.125 1.125 0 0 1 2.25 0v2.25h2.25a1.125 1.125 0 0 1 0 2.25zM13.5 7.875a1.125 1.125 0 0 1-1.125-1.125h-2.25a2.25 2.25 0 0 1-2.25-2.25V2.25c-2.159 0-5.625 0-5.625.007V15.75h7.875a1.125 1.125 0 0 1 0 2.25H2.25A2.25 2.25 0 0 1 0 15.742V2.258A2.257 2.257 0 0 1 2.25 0h7.313c.655.02 1.281.28 1.758.73l2.574 2.574c.45.478.71 1.103.73 1.759V6.75c0 .621-.504 1.125-1.125 1.125zm-3.375-5.16V4.5h1.785l-1.785-1.784z"/>
</svg>
