<svg xmlns="http://www.w3.org/2000/svg" width="31" height="35" viewBox="0 0 31 35">
    <g fill="#E9E9E9" fill-rule="evenodd">
        <g fill-rule="nonzero">
            <path d="M23.43 14.545H8.556c-.312 0-.557.337-.557.728 0 .39.258.727.557.727h14.886c.312 0 .557-.337.557-.727 0-.39-.258-.728-.57-.728zM8.014 9.818L8 12.511c0 .152.055.304.166.414.11.11.25.166.401.166l2.685-.014c.152 0 .29-.055.401-.166l9.272-9.252a.583.583 0 0 0 0-.814L18.268.165a.586.586 0 0 0-.817 0L15.597 2.03 8.18 9.418a.614.614 0 0 0-.166.4zm9.853-8.437l1.868 1.864-1.052 1.05-1.868-1.865 1.052-1.05zm-8.705 8.686l6.836-6.822 1.869 1.864-6.836 6.808-1.882.014.013-1.864z"/>
        </g>
        <text font-family="ProximaNova-Semibold, Proxima Nova" font-size="12" font-weight="500" letter-spacing="2">
            <tspan x="0" y="35">EDI</tspan> <tspan x="24.552" y="35">T</tspan>
        </text>
    </g>
</svg>
