<?xml version="1.0" standalone="no"?><!DOCTYPE svg PUBLIC "-//W3C//DTD SVG 1.1//EN" "http://www.w3.org/Graphics/SVG/1.1/DTD/svg11.dtd"><svg class="icon" height="512" viewBox="0 0 1024 1024" version="1.1" xmlns="http://www.w3.org/2000/svg"><path d="M512 0a512 512 0 1 0 512 512A512 512 0 0 0 512 0z m227.456 694.144a32 32 0 1 1-45.248 45.248L512 557.248l-182.144 182.208a32 32 0 0 1-45.248-45.248L466.752 512 284.544 329.856a32 32 0 0 1 45.248-45.248L512 466.752l182.144-182.144a32 32 0 0 1 45.248 45.248L557.248 512z" fill="#F04036" /></svg>