<svg xmlns="http://www.w3.org/2000/svg" width="170" height="170" viewBox="0 0 170 170">
    <g fill="none" fill-rule="evenodd">
        <rect width="170" height="170" fill="#E6F2FA" rx="2"/>
        <g fill="#FFF" fill-rule="nonzero">
            <path d="M113.05 94.563h-56.1c-.94 0-1.7-.761-1.7-1.7v-56.1a1.7 1.7 0 0 1 1.7-1.7h56.1a1.7 1.7 0 0 1 1.7 1.7v56.1c0 .939-.76 1.7-1.7 1.7zm-54.4-3.397h52.701V38.463h-52.7v52.703z"/>
            <path d="M56.949 94.563c-.404 0-.81-.142-1.136-.434a1.69 1.69 0 0 1-.128-2.39l17-18.846a1.714 1.714 0 0 1 2.43-.105l4.42 4.131 13.393-13.185a1.706 1.706 0 0 1 2.333-.051l18.928 16.983c.358.32.561.776.561 1.257v10.946c0 .934-.76 1.692-1.7 1.692H94.124c-.432 0-.846-.164-1.162-.458L74.053 76.444l-15.84 17.558c-.335.372-.798.56-1.264.56zm37.845-3.383h16.556v-8.502L94.177 67.27l-12.16 11.97L94.793 91.18zM74.432 65.595c-4.533 0-8.221-3.69-8.221-8.22 0-4.533 3.688-8.22 8.22-8.22 4.534 0 8.22 3.687 8.22 8.22 0 4.53-3.688 8.22-8.22 8.22zm0-13.013a4.8 4.8 0 0 0-4.796 4.793 4.801 4.801 0 0 0 4.796 4.793 4.8 4.8 0 0 0 4.794-4.793 4.8 4.8 0 0 0-4.794-4.793z"/>
        </g>
    </g>
</svg>
