<svg xmlns="http://www.w3.org/2000/svg" width="23" height="18" viewBox="0 0 23 18">
    <g fill="none" fill-rule="evenodd">
        <path d="M0 8.638h22.99v9.313H0z"/>
        <path fill="#4099D5" d="M12.961 11.73c.028.036.044.06.063.083.706.818 1.234 1.734 1.53 2.775.044.154.13.167.262.167l6.57-.003c.078 0 .156-.01.232-.016-.07-2.043-1.437-3.812-3.44-4.484-1.814-.607-4.048.022-5.217 1.477zm.536 4.853c.02-1.862-.978-4.005-3.056-5.152-2.149-1.186-4.317-1.11-6.369.222-1.757 1.14-2.621 2.83-2.729 4.93h12.154zM0 16.207c.1-.525.163-1.06.307-1.573.428-1.524 1.29-2.77 2.532-3.755a7.132 7.132 0 0 1 3.033-1.425c2.054-.42 3.963-.055 5.715 1.1.106.07.208.145.312.217.012.009.027.013.022.01 2.482-2.322 5.233-2.883 8.186-1.06 2.326 1.436 3.063 3.714 2.846 6.37h-8.088v1.847h-.326L.312 17.937c-.104 0-.208.01-.312.014v-1.744zM4.698 4.199c-.003.579.096 1.038.295 1.464.843 1.802 3.085 2.175 4.394.729 1.096-1.21 1.038-3.147-.127-4.294-.989-.973-2.516-1.02-3.549-.098A2.962 2.962 0 0 0 4.698 4.2m6.82.374c-.074 1.432-.748 2.77-2.247 3.578-1.733.935-3.797.453-4.997-1.105-1.493-1.94-1.147-4.728.774-6.234 1.605-1.256 3.98-1.03 5.327.507.76.868 1.167 1.939 1.144 3.254"/>
        <path fill="#4099D5" d="M18.849 4.36c-.01-.631-.195-1.197-.612-1.683a2.015 2.015 0 0 0-2.933-.174c-.865.8-1.044 2.155-.394 3.144.464.707 1.125 1.093 1.987 1.003 1.1-.115 1.94-1.125 1.952-2.29m-5.672-.298c.066-1.325.732-2.529 2.188-3.174 1.609-.712 3.41-.054 4.318 1.507.998 1.717.486 3.99-1.139 5.051a3.405 3.405 0 0 1-4.812-1.131c-.368-.625-.557-1.295-.555-2.253"/>
    </g>
</svg>
