<svg xmlns="http://www.w3.org/2000/svg" width="14" height="18" viewBox="0 0 14 18">
    <g fill="#4099D5" fill-rule="nonzero">
        <path d="M12.735 2.06h-2.306V.56a.536.536 0 0 0-.545-.534c-.03 0-.05.01-.059.02a.074.074 0 0 0-.039-.02H4.288a.528.528 0 0 0-.535.535V2.06H1.437c-.662 0-1.178.515-1.178 1.177V5.163h1.022v10.968c0 .662.506 1.168 1.168 1.168h9.274c.662 0 1.177-.506 1.177-1.168V5.164h1.012V3.237c0-.662-.516-1.178-1.177-1.178zm-7.912-.964h4.525v.963H4.823v-.963zm6.997 15.035c0 .068-.03.097-.097.097H2.449c-.068 0-.097-.029-.097-.097V5.164h9.468V16.13zm1.012-12.038H1.34v-.856c0-.068.029-.107.097-.107h11.298c.068 0 .097.039.097.107v.856z"/>
        <path d="M9.047 6.42h1.08v8.854h-1.08zM6.556 6.42h1.08v8.854h-1.08zM4.064 6.42h1.08v8.854h-1.08z"/>
    </g>
</svg>
