<svg xmlns="http://www.w3.org/2000/svg" width="26" height="26" viewBox="0 0 26 26">
    <g fill="none" fill-rule="evenodd">
        <circle cx="13" cy="13" r="13" fill="#D0021B"/>
        <g fill="#FFF" fill-rule="nonzero">
            <path d="M17.733 7.586h-1.799V6.417A.418.418 0 0 0 15.51 6c-.023 0-.038.008-.045.015a.058.058 0 0 0-.03-.015H11.144a.412.412 0 0 0-.418.417v1.17H8.921a.907.907 0 0 0-.919.918V10.008H8.8v8.554c0 .516.395.91.911.91h7.234a.9.9 0 0 0 .918-.91v-8.554h.79V8.505a.907.907 0 0 0-.919-.919zm-6.17-.751h3.529v.751h-3.53v-.751zm5.457 11.727c0 .053-.023.076-.076.076H9.71c-.053 0-.076-.023-.076-.076v-8.554h7.386v8.554zm.79-9.39H8.844v-.667c0-.053.023-.084.076-.084h8.812c.053 0 .076.03.076.084v.668z"/>
            <path d="M14.856 10.987h.843v6.907h-.843zM12.913 10.987h.843v6.907h-.843zM10.97 10.987h.843v6.907h-.843z"/>
        </g>
    </g>
</svg>
