<svg xmlns="http://www.w3.org/2000/svg" width="24" height="14" viewBox="0 0 24 14">
    <path fill="#E6F2FA" fill-rule="nonzero" d="M11.526.034C7.122.034 3.128 2.444.18 6.358a.912.912 0 0 0 0 1.089c2.948 3.919 6.942 6.328 11.346 6.328s8.398-2.41 11.345-6.323a.912.912 0 0 0 0-1.09C19.924 2.444 15.931.034 11.526.034zm.316 11.709a4.851 4.851 0 0 1-5.154-5.154 4.86 4.86 0 0 1 4.522-4.522 4.851 4.851 0 0 1 5.154 5.154c-.156 2.41-2.113 4.366-4.522 4.522zm-.146-2.235a2.606 2.606 0 0 1-2.773-2.773 2.622 2.622 0 0 1 2.438-2.438 2.606 2.606 0 0 1 2.773 2.773 2.622 2.622 0 0 1-2.438 2.438z"/>
</svg>
