<svg xmlns="http://www.w3.org/2000/svg" width="24" height="12" viewBox="0 0 24 12">
    <path fill="#33333A" fill-rule="nonzero" d="M23.953 8.392a.398.398 0 0 0-.037-.171c-.487-1.047-2.31-1.422-4.618-1.897-1.104-.228-2.323-.48-3.514-.832a.4.4 0 0 0-.657-.419l-.158.16c-.22-.076-.437-.156-.652-.24a.4.4 0 0 0-.634-.47l-.138.136a10.78 10.78 0 0 1-.578-.293.399.399 0 0 0-.594-.53l-.107.106a7.307 7.307 0 0 1-.818-.635.391.391 0 0 0-.047-.038c-.013-.008-1.282-.896-1.41-2.581a.72.72 0 0 0-.717-.675h-6.08-1.277a.72.72 0 0 0-.72.72c0 1.483-.258 3.012-.767 4.545C.06 6.391 0 7.227 0 8.795v1.986a.4.4 0 0 0 .39.4c.097.001 9.7.212 15.864.399.232.006.459.01.679.01 3.42 0 5.305-.82 6.296-1.534.672-.484.724-.993.724-1.66v-.004zm-13.05-4.497a.38.38 0 0 0 .044.035c.235.21.485.404.746.586l-.614.614a.399.399 0 1 0 .564.564l.74-.74c.185.106.373.207.565.303l-.455.455a.399.399 0 1 0 .564.564l.665-.664c.204.086.412.168.621.246l-.486.486a.399.399 0 1 0 .564.565l.764-.764c1.338.422 2.715.706 3.952.96 1.596.33 3.117.642 3.77 1.13-1.073.368-4.424 1.13-12.9.555-.58-.04-1.13-.075-1.654-.107 1.106-1.139 1.627-2.39 1.627-3.88 0-.536-.292-1.174-.695-1.517-.629-.535-.892-1.255-.901-2.475H9.2c.167 1.85 1.44 2.888 1.704 3.084zM3.594.811h2.395v.4a.4.4 0 0 1-.399.398H3.992a.4.4 0 0 1-.399-.399V.811zM1.188 5.53c.527-1.587.8-3.174.808-4.719h.799v.4a1.2 1.2 0 0 0 1.197 1.197H5.59A1.2 1.2 0 0 0 6.787 1.21V.811h.798c.006 1.043.162 2.214 1.183 3.083.244.208.414.646.414.91 0 1.499-.596 2.679-1.93 3.814-3.378-.19-5.43-.224-6.452-.224.011-1.279.087-1.961.388-2.864zm21.575 3.878c-.955.687-2.858 1.482-6.486 1.374-5.458-.165-13.61-.35-15.478-.391V9.192c1.023 0 3.098.034 6.542.23a.399.399 0 0 0 .047.004h.003c.783.044 1.636.097 2.563.16 2.208.15 4.078.21 5.657.21 4.372 0 6.523-.463 7.486-.783-.051.148-.15.262-.334.395z"/>
</svg>
