<svg xmlns="http://www.w3.org/2000/svg" width="24" height="9" viewBox="0 0 24 9">
    <path fill="#4099D5" fill-rule="nonzero" d="M23.293 5.364c-.501-.157-1.199-.261-2.123-.307a9.583 9.583 0 0 0-1.027.01c.167-.336.358-.729.565-1.155.431-.204.73-.642.73-1.15 0-.444-.23-.84-.585-1.068A1.272 1.272 0 0 0 19.059.441a1.272 1.272 0 0 0-2.199.821 1.272 1.272 0 0 0-.501 2.107L15.59 5.06l-1.579-.072a160.376 160.376 0 0 0-3.126-.125c-.727-.02-1.4-.03-2.034-.03H5.995l-.214-.001h-.568a2785.293 2785.293 0 0 0-3.615 0 1.599 1.599 0 0 0 0 3.198h4.797c1.289 0 2.578.066 4.036.2 1.525.14 3.66.2 5.934.2 2.555 0 5.467-.51 7.028-1.205.84-.373.78-1.587-.1-1.861zm-6.05-3.366a.4.4 0 0 0 .446-.531.463.463 0 0 1-.03-.16.47.47 0 1 1 .913-.162.4.4 0 0 0 .668.134.468.468 0 0 1 .345-.153.472.472 0 0 1 .437.647.4.4 0 0 0 .267.536.47.47 0 0 1 .046.893l-.032.007a.475.475 0 0 1-.137.024.47.47 0 0 1-.393-.212.4.4 0 0 0-.56-.109l-.014.011-.025.02a.403.403 0 0 0-.068.078.474.474 0 0 1-.393.212.47.47 0 0 1-.44-.31.405.405 0 0 0-.051-.095l-.012-.015-.02-.025a.4.4 0 0 0-.586.002.466.466 0 0 1-.345.153l-.015-.001a.473.473 0 0 1-.203-.057.398.398 0 0 0-.03-.014.471.471 0 0 1 .233-.873zm-.17 1.73a1.276 1.276 0 0 0 .168.014h.018c.185 0 .363-.04.525-.114a1.264 1.264 0 0 0 1.655.176c.027.019.054.036.082.053l.013.007c.024.014.047.027.072.039l.023.01.065.029.026.01.066.023h.002c-.216.445-.41.838-.567 1.149-.608.03-1.396.024-2.53-.018a103.77 103.77 0 0 1-.24-.009l.623-1.369zm5.995 2.767c-1.449.645-4.252 1.135-6.703 1.135-2.252 0-4.367-.06-5.861-.196a44.222 44.222 0 0 0-4.109-.204H1.599a.8.8 0 1 1 0-1.598 1093.575 1093.575 0 0 1 3.613-.001h3.639c.627 0 1.292.011 2.012.031.902.026 1.773.062 3.111.124.714.034 1.318.062 1.836.084l.015.002c.285.012.552.023.803.032 1.428.056 2.045.054 2.751.012l.31-.02.14-.01c.593-.038.938-.048 1.302-.03.862.042 1.495.137 1.925.271.17.053.182.292.012.368z"/>
</svg>
