<svg xmlns="http://www.w3.org/2000/svg" width="24" height="11" viewBox="0 0 24 11">
    <path fill="#33333A" fill-rule="nonzero" d="M23.996 6.829v-.021l-.002-.017a.413.413 0 0 0-.01-.064c-.184-.91-1.301-1.405-1.43-1.46a.404.404 0 0 0-.148-.03c-.062-.002-6.262-.122-8.086-2.256C12.297.615 10.207.079 10.12.058a.4.4 0 0 0-.379.105l-.794.795C7.27 2.591 5.672 3.355 4.197 3.234 2.528 3.095 1.574 1.82 1.565 1.81a.4.4 0 0 0-.658.016C-.575 4.104.271 6.815.442 7.303v1.925c0 .22.18.4.4.4h5.19a.398.398 0 0 0 .282-.117l.235-.235c1.052.283 4.607 1.154 8.57 1.154 2.96 0 6.148-.486 8.689-2.064a.4.4 0 0 0 .188-.34V6.834 6.83v-.002zm-1.686-.796c.23.11.593.34.78.608-1.217.573-6.179 2.455-15.777.618.377-.833 2.087-1.4 4.813-1.576a2.455 2.455 0 0 0 2.157-1.65c2.33 1.789 7.291 1.981 8.027 2zM1.316 2.721c.495.48 1.444 1.19 2.801 1.308 1.72.148 3.531-.693 5.39-2.503L10.136.9c.188.067.494.189.875.392l-.47.47a.399.399 0 1 0 .565.564l.61-.612c.231.154.475.332.727.539l-.705.705a.4.4 0 0 0 .566.565l.736-.738c.19.183.38.382.571.599a1.653 1.653 0 0 1-1.535 1.503c-2.318.15-5.056.663-5.559 2.214l-.405-.085a8.58 8.58 0 0 0-1.805-.186l-3.176.003c-.194-.658-.605-2.475.186-4.11zM6.53 8.442a.4.4 0 0 0-.382.105l-.282.282H1.241V7.631l3.065-.004c.569 0 1.12.057 1.636.168 3.624.781 6.644 1.059 9.108 1.059 4.417 0 7.044-.893 8.148-1.38v.328c-5.954 3.52-15.557.955-16.668.64z"/>
</svg>
