<svg xmlns="http://www.w3.org/2000/svg" width="18" height="20" viewBox="0 0 18 20">
    <g fill="none" fill-rule="evenodd">
        <rect width="17.778" height="20" fill="#4099D5" rx="2"/>
        <g fill="#FFF" fill-rule="nonzero">
            <path d="M6.837 8.4a.539.539 0 0 0-.751-.026L4.37 9.999l-.724-.746a.539.539 0 0 0-.75-.026.557.557 0 0 0 0 .772l1.099 1.12a.484.484 0 0 0 .375.16.538.538 0 0 0 .375-.16l2.091-1.972a.504.504 0 0 0 0-.746zM14.093 9.756H8.13c-.286 0-.519.205-.519.457s.233.457.519.457h5.964c.287 0 .519-.205.519-.457s-.232-.457-.519-.457zM6.837 4.139a.539.539 0 0 0-.751-.027L4.37 5.737l-.724-.746a.539.539 0 0 0-.75-.026.557.557 0 0 0 0 .772l1.099 1.12a.484.484 0 0 0 .375.16.538.538 0 0 0 .375-.16l2.091-1.972a.504.504 0 0 0 0-.746zM14.093 5.495H8.13c-.286 0-.519.204-.519.456s.233.457.519.457h5.964c.287 0 .519-.205.519-.457s-.232-.456-.519-.456zM6.837 12.662a.539.539 0 0 0-.751-.026L4.37 14.26l-.724-.746a.539.539 0 0 0-.75-.027.557.557 0 0 0 0 .773l1.099 1.12a.484.484 0 0 0 .375.16.538.538 0 0 0 .375-.16l2.091-1.973a.504.504 0 0 0 0-.746zM14.093 13.714H8.13c-.286 0-.519.204-.519.456 0 .253.233.457.519.457h5.964c.287 0 .519-.204.519-.457 0-.252-.232-.456-.519-.456z"/>
        </g>
    </g>
</svg>
