<svg xmlns="http://www.w3.org/2000/svg" width="24" height="14" viewBox="0 0 24 14">
    <g fill="#33333A" fill-rule="nonzero">
        <path d="M11.18 6.407c-.88 0-1.597.716-1.597 1.596 0 .88.716 1.596 1.596 1.596.88 0 1.596-.716 1.596-1.596 0-.88-.716-1.596-1.596-1.596zm0 2.394a.799.799 0 1 1 0-1.597.799.799 0 0 1 0 1.597zM5.595 5.61H7.19a.399.399 0 1 0 0-.798H5.595a.399.399 0 1 0 0 .798zM6.392 4.014h1.596a.399.399 0 1 0 0-.798H6.392a.399.399 0 1 0 0 .798zM6.392 6.407H4.797a.399.399 0 1 0 0 .798h1.595a.399.399 0 1 0 0-.798zM5.595 8.003H3.999a.399.399 0 1 0 0 .798h1.596a.399.399 0 1 0 0-.798z"/>
        <path d="M23.949 9.042a.49.49 0 0 0-.026-.177c-.089-.46-.479-1.294-2.135-1.252a2.608 2.608 0 0 1-.188 0c-1.024-.038-2.123-.627-2.136-.634a.335.335 0 0 0-.04-.019L16.69 5.867a1.197 1.197 0 0 0-2.03-1.246l-.16.212c-.183-.111-.37-.233-.567-.37.19-.255.272-.568.228-.883a1.19 1.19 0 0 0-.464-.79 1.193 1.193 0 0 0-1.598.14 10.635 10.635 0 0 1-.5-.544C9.657.108 8.789-.044 8.307.04c-.173.03-.358.08-.565.148a.397.397 0 0 0-.245.23c-.274.685-1.103 1.339-2.113 1.668a4.624 4.624 0 0 1-.623.155.398.398 0 0 0-.102.017c-.788.12-1.528.016-2.001-.304a1.848 1.848 0 0 0-.697-.296A1.607 1.607 0 0 0 .399.424a.399.399 0 1 0 0 .798c.444 0 .806.36.807.805V5.84c-.504.517-2.102 2.463-.5 4.963-.517.842-.247 1.451-.024 1.753.293.396.787.633 1.322.633H17.78c1.828 0 3.665-.417 5.313-1.207l.197-.093c.59-.28.685-1.692.659-2.847zm-.82-.07c-.368.341-2.178 1.016-2.77 1.016-.294 0-.55.128-.777.241a5.903 5.903 0 0 1-.132.065c.347-.644.892-1.35 2.233-1.883h.128c.543-.016 1.192.072 1.319.56zm-2.773-.784c-1.134.717-1.549 1.582-1.844 2.2h-2.81l.189-1.13a36.48 36.48 0 0 1 1.58-2.22l1.637.655c.11.058.61.307 1.248.495zm-4.5-3.165a.4.4 0 0 1 .078.559l-.164.217-.005.006-.552.732a.4.4 0 0 1-.637-.48l.346-.458.004-.006.372-.492a.4.4 0 0 1 .558-.078zm-1.683 2.229a1.197 1.197 0 0 0 1.676-.234l.365-.483.488.196c-.858 1.124-1.497 2.118-1.527 2.164a.398.398 0 0 0-.057.15l-.225 1.344-8.218.004c.099-.15.18-.313.243-.485.223-.613 2.387-4.11 4.41-6.63.09.095.184.192.282.29l-.31.41c-.192.256-.274.57-.23.887.044.317.209.597.464.79a1.187 1.187 0 0 0 .887.23c.316-.044.597-.209.79-.464l.242-.32c.196.136.382.258.565.371l-.079.104a1.199 1.199 0 0 0 .234 1.676zM12.921 3.35a.395.395 0 0 1 .45.34.395.395 0 0 1-.076.295l-.721.955a.397.397 0 0 1-.56.078.397.397 0 0 1-.077-.558l.721-.956a.397.397 0 0 1 .263-.154zm-7.29-.506C6.79 2.466 7.738 1.73 8.155.894a2.74 2.74 0 0 1 .288-.068c.11-.021.718-.012 2.348 1.845-2.028 2.507-4.345 6.197-4.624 6.964-.11.302-.3.551-.58.759l-3.266.002.22-1.311c.165-.4 1.471-3.546 2.515-6.088.19-.04.382-.09.573-.153zM1.862 6.313a.398.398 0 0 0 .14-.304V2.5c.07.029.138.067.207.113.505.342 1.191.508 1.941.49A2178.478 2178.478 0 0 1 1.787 8.82a.424.424 0 0 0-.025.088l-.248 1.488h-.121c-1.51-2.336.387-4.012.47-4.083zm21.054 4.87l-.168.08a11.572 11.572 0 0 1-4.969 1.128H2.004c-.283 0-.537-.116-.68-.31-.068-.09-.262-.354.077-.887h.364l.019.004a.374.374 0 0 0 .152-.004l3.664-.002a.4.4 0 0 0 .188 0l9.328-.005a.396.396 0 0 0 .226 0l3.333-.002a.399.399 0 0 0 .163 0h.325c.293 0 .55-.128.776-.242.155-.077.315-.157.42-.157.498 0 1.897-.41 2.778-.882-.034.62-.117 1.134-.22 1.278z"/>
    </g>
</svg>
