<svg xmlns="http://www.w3.org/2000/svg" width="22" height="17" viewBox="0 0 22 17">
    <path fill="#FFF" fill-rule="nonzero" d="M10.538 6.375c-1.746 0-3.161 1.428-3.161 3.188 0 1.76 1.415 3.187 3.161 3.187S13.7 11.323 13.7 9.562c0-1.76-1.416-3.187-3.162-3.187zm8.431-3.188H16.44c-.348 0-.723-.271-.832-.604L14.954.605C14.844.272 14.469 0 14.122 0H6.955c-.347 0-.722.272-.832.605L5.47 2.583c-.11.333-.484.604-.832.604h-2.53C.949 3.188 0 4.144 0 5.313v9.562C0 16.044.948 17 2.108 17h16.861c1.16 0 2.108-.956 2.108-2.125V5.312a2.123 2.123 0 0 0-2.108-2.125zm-8.43 11.688c-2.91 0-5.27-2.379-5.27-5.313 0-2.933 2.36-5.312 5.27-5.312 2.91 0 5.269 2.379 5.269 5.313 0 2.933-2.36 5.312-5.27 5.312zm7.693-8.076a.74.74 0 0 1-.738-.744c0-.41.33-.744.738-.744a.74.74 0 0 1 .737.744.74.74 0 0 1-.737.744z"/>
</svg>
