<svg xmlns="http://www.w3.org/2000/svg" width="15" height="14" viewBox="0 0 15 14">
    <g fill="#33333A" fill-rule="evenodd">
        <path d="M5.242.977l-.083.15c-.261.486-.524.97-.782 1.457a.484.484 0 0 1-.374.274c-.307.048-.613.105-.919.159l-.908.159c.005.047.008.082.013.118.08.562.157 1.125.242 1.687a.502.502 0 0 1-.16.459c-.39.392-.775.79-1.163 1.185l-.105.112.103.106c.39.399.78.799 1.173 1.195.127.127.18.269.152.448-.058.371-.107.744-.16 1.116l-.097.692c.606.106 1.194.214 1.784.309a.543.543 0 0 1 .43.304c.256.488.52.971.782 1.457.023.042.049.083.075.128.556-.268 1.1-.526 1.639-.792a.523.523 0 0 1 .503-.001c.414.206.832.404 1.249.605.128.062.257.121.393.185.03-.051.057-.093.08-.137.264-.49.528-.978.789-1.469a.483.483 0 0 1 .361-.27l.837-.144.996-.173c0-.036.002-.06 0-.081-.08-.549-.154-1.098-.242-1.646a.61.61 0 0 1 .19-.582c.415-.406.816-.827 1.23-1.249l-.105-.112c-.39-.4-.78-.8-1.173-1.196a.475.475 0 0 1-.15-.435c.04-.248.07-.498.106-.748l.152-1.066-.13-.028c-.561-.098-1.123-.199-1.685-.292a.51.51 0 0 1-.395-.288c-.259-.492-.525-.98-.788-1.469-.023-.043-.049-.084-.074-.126-.53.256-1.052.497-1.562.758a.656.656 0 0 1-.656 0c-.514-.262-1.038-.504-1.568-.759zM0 6.647c.068-.096.126-.203.207-.288.426-.441.856-.879 1.288-1.314.061-.062.083-.118.07-.205-.09-.617-.174-1.234-.263-1.85-.051-.354.075-.52.436-.58.618-.103 1.234-.214 1.851-.316.089-.015.135-.054.175-.13.295-.555.594-1.109.892-1.663.157-.29.356-.353.658-.208.567.273 1.134.545 1.7.822a.249.249 0 0 0 .245 0C7.819.64 8.382.37 8.945.098c.318-.153.513-.09.677.214.295.546.591 1.09.88 1.64a.255.255 0 0 0 .208.148c.608.1 1.215.209 1.824.311.368.062.488.224.435.592-.088.617-.177 1.234-.258 1.851a.243.243 0 0 0 .06.177c.431.449.87.891 1.305 1.336.268.274.265.466-.005.742-.433.442-.867.882-1.295 1.328a.26.26 0 0 0-.063.189c.083.631.173 1.262.266 1.892.042.288-.096.481-.386.53-.644.111-1.289.22-1.932.337-.056.01-.118.07-.147.122-.298.543-.59 1.09-.883 1.636-.172.32-.367.38-.697.222-.563-.27-1.127-.54-1.688-.815a.22.22 0 0 0-.219 0c-.569.28-1.14.553-1.711.828-.298.143-.505.078-.66-.208-.298-.554-.597-1.108-.891-1.664-.044-.082-.098-.116-.19-.132-.636-.105-1.271-.217-1.906-.328-.28-.049-.416-.246-.375-.526.092-.63.178-1.261.273-1.891.013-.09-.013-.144-.072-.204-.422-.426-.843-.854-1.26-1.286C.149 7.05.079 6.94 0 6.84v-.192z"/>
        <path d="M7.417 5.391v4.166c-.002.26-.177.444-.419.443-.243 0-.416-.183-.416-.444V5.392c-.051.044-.083.07-.112.1-.25.24-.498.482-.75.721a.416.416 0 0 1-.435.105.39.39 0 0 1-.279-.324.374.374 0 0 1 .119-.344c.523-.508 1.047-1.018 1.575-1.522a.414.414 0 0 1 .599 0c.528.504 1.053 1.012 1.574 1.523.172.168.166.41.003.568a.42.42 0 0 1-.588.001c-.252-.232-.494-.473-.74-.71-.035-.034-.072-.066-.13-.119"/>
    </g>
</svg>
