<svg xmlns="http://www.w3.org/2000/svg" width="24" height="11" viewBox="0 0 24 11">
    <path fill="#33333A" fill-rule="nonzero" d="M23.293 7.361c-.501-.156-1.199-.26-2.123-.306a8.667 8.667 0 0 0-.805 0l.203-.639a1.103 1.103 0 0 0-.655-1.389l-1.95-.731a1.1 1.1 0 0 0-1.405.61l-.974 2.357a24.139 24.139 0 0 1-2.055-.096c-1.083-.1-2.05-.277-2.888-.54l3.354-3.255a1.254 1.254 0 0 0-.057-1.851L12.678.44a1.672 1.672 0 0 0-2.175 0L6.713 3.69c-1.09-.888-2.554-1.725-4.415-2.378a1.12 1.12 0 0 0-1.435.7c-.158.472.015.99.425 1.27 1.372.94 2.928 2.285 3.926 3.547a2790.166 2790.166 0 0 0-3.616 0 1.598 1.598 0 1 0 0 3.198h4.797c1.289 0 2.578.067 4.036.2 1.525.14 3.66.2 5.934.2 2.555 0 5.467-.509 7.028-1.204.84-.374.78-1.588-.1-1.862zm-5.996-2.15a.301.301 0 0 1 .384-.167l1.951.732a.303.303 0 0 1 .18.384c-.023.065-.208.65-.302.944l-.18.011-.947.06-.11.006-.192.01a52.518 52.518 0 0 1-.352.02l-.052.002a48.726 48.726 0 0 1-.735.03l-.06.002c-.144.004-.288.008-.43.01l.845-2.043zm-6.274-4.163a.873.873 0 0 1 1.136 0l1.259 1.08a.454.454 0 0 1 .02.67L9.815 6.315a6.569 6.569 0 0 1-.755-.382c-.34-.207-.656-.493-.965-.862l-.067-.08-.003-.004a8.41 8.41 0 0 0-.706-.764l3.705-3.175zm12.045 7.445c-1.449.645-4.252 1.135-6.703 1.135-2.252 0-4.367-.06-5.861-.197a44.222 44.222 0 0 0-4.109-.203H1.599a.8.8 0 1 1 0-1.599 1093.575 1093.575 0 0 1 3.613 0H5.995a.4.4 0 0 0 .336-.617c-.995-1.533-2.912-3.24-4.591-4.389a.313.313 0 0 1-.119-.359.322.322 0 0 1 .413-.197c1.877.658 3.318 1.506 4.348 2.387a.404.404 0 0 0 .064.07c.403.348.728.684.96.97.031.039.062.075.094.112.356.422.73.759 1.144 1.01l.002.001c.058.036.119.07.18.104 1.203.677 2.764 1.071 4.63 1.241a27.627 27.627 0 0 0 3.502.08l.136-.004.288-.012h.009a53.911 53.911 0 0 0 .976-.05l.06-.003.952-.06.29-.018.013-.001.15-.01h.002c.59-.038.934-.049 1.297-.03.862.042 1.495.137 1.925.27.17.054.182.293.012.369z"/>
</svg>
