<svg xmlns="http://www.w3.org/2000/svg" width="24" height="12" viewBox="0 0 24 12">
    <path fill="#33333A" fill-rule="nonzero" d="M23.953 9.176c0-1.992-1.158-2.914-3.302-3.345a16.626 16.626 0 0 0-.906-.157l-.283-.044a12.389 12.389 0 0 1-.688-.122c-.242-.052-.644-.24-1.177-.543l-.01-.006a21.92 21.92 0 0 1-.9-.545 1.196 1.196 0 0 0-1.946-1.312l-.003.003c-.184-.13-.374-.264-.571-.405a1.196 1.196 0 0 0-1.817-1.542l-.123.123c-.508-.38-.988-.743-1.406-1.064A.975.975 0 0 0 9.532.3l-.818.818c-.4.4-.4 1.048 0 1.447l.223.223c.063.064.06.161.009.219a.16.16 0 0 1-.053.037c-.036.016-.073.03-.11.045-.045.019-.095.038-.16.063l-.02.008c-1.727.65-3.097.334-4.174-.594a4.298 4.298 0 0 1-.61-.645 2.705 2.705 0 0 1-.19-.275.398.398 0 0 0-.276-.196c-.95-.171-1.55 1.246-2.189 3.964a52.385 52.385 0 0 0-.703 3.666l-.393 1.147a.398.398 0 0 0 .004.269c.076.203.301.433.727.628.612.28 1.55.441 2.89.441h17.475a4.13 4.13 0 0 0 1.358-.339c.878-.391 1.432-1.064 1.431-2.045v-.006zm-21.55-.399H1.317a52.602 52.602 0 0 1 .39-2.116 2.38 2.38 0 0 1 .696 2.116zm6.87-3.085a1.578 1.578 0 0 0 .158-2.047.918.918 0 0 0 .14-.14l.003-.004a.914.914 0 0 0 .04-.054l.006-.008a.945.945 0 0 0-.111-1.204l-.007-.007-.002-.002-.223-.223a.226.226 0 0 1 0-.32l.819-.818a.182.182 0 0 1 .24-.017c.393.303.843.645 1.321 1.003l-.152.153-.023.024-.02.021c-.01.01-.018.02-.026.03l-.015.018c-.01.011-.018.022-.026.033l-.012.016a1.212 1.212 0 0 0-.026.037l-.008.013a1.164 1.164 0 0 0-.056.095l-.003.004a1.186 1.186 0 0 0-.13.44 1.183 1.183 0 0 0-.003.05v.012c-.002.014-.002.029-.002.044v.018l.001.039.001.024a1.147 1.147 0 0 0 .006.065l.003.026.007.043.003.016a1.23 1.23 0 0 0 .049.18v.003l.022.055.004.008.022.048.005.012.023.043.008.014a1.163 1.163 0 0 0 .057.092l.012.017.025.033.014.018.025.03.016.02.028.03.017.017.002.002.04.037.004.005a1.2 1.2 0 0 0 .05.042l.023.018.025.02.01.006.012.009.072.047.021.011c.026.015.053.03.08.042l.003.001c.442.207.985.127 1.35-.238l.254-.254.16-.159c.189.136.375.268.557.396l-.01.01-.08.08-.18.18-.022.023-.022.023-.024.029-.017.02a1.2 1.2 0 0 0-.024.031l-.014.018a1.36 1.36 0 0 0-.024.035l-.01.015a1.17 1.17 0 0 0-.024.038l-.007.012a1.183 1.183 0 0 0-.052.098 1.187 1.187 0 0 0-.104.385v.004l-.001.002a1.162 1.162 0 0 0-.003.048l-.001.013a1.183 1.183 0 0 0 .004.158l.003.032.003.027.007.041c0 .006.002.011.003.017.011.06.028.121.049.18l.002.005.02.052.005.011.02.045.007.015a1.189 1.189 0 0 0 .086.145l.013.02.024.03.015.02.025.03.016.02.029.03.015.016.003.003c.03.03.062.058.094.085l.015.011c.011.01.023.018.035.027l.007.005.01.007.076.05.02.01c.025.015.051.028.077.04l.006.004c.443.206.985.126 1.35-.239l.024-.024.006-.006.559-.558.01-.01c.184.118.36.227.528.33l-1.468 1.283a.78.78 0 0 1-.98.038 1.58 1.58 0 0 0-2.073.136l-1.95 1.95H6.189l3.085-3.085zm10.065.725l.284.045.29.046c.22.036.405.069.582.104 1.65.332 2.5.918 2.641 2.165H11.368l1.387-1.386a.78.78 0 0 1 1.019-.073 1.58 1.58 0 0 0 1.996-.065l1.67-1.462c.491.266.88.434 1.166.496.2.043.411.08.732.13zm-3.47-2.751a.399.399 0 0 1 0 .563l-.017.017-.003.003-.12.12-.683.683a.445.445 0 0 1-.467.104l-.019-.009-.005-.002a.399.399 0 0 1-.055-.036l-.017-.014-.012-.01a.402.402 0 0 1-.022-.023l-.007-.007a.394.394 0 0 1-.023-.029l-.003-.004a.398.398 0 0 1-.021-.035h-.001a.4.4 0 0 1-.044-.12v-.006a.38.38 0 0 1-.005-.032l-.001-.024V4.79v-.028l.002-.01a.4.4 0 0 1 .004-.03.4.4 0 0 1 .022-.076c0-.003.002-.005.003-.008a.395.395 0 0 1 .013-.028l.005-.008a.39.39 0 0 1 .015-.027l.006-.009a.37.37 0 0 1 .019-.024l.004-.005a.405.405 0 0 1 .023-.026l.214-.214.393-.392.003-.004.235-.235a.399.399 0 0 1 .564 0zm-2.39-1.944a.399.399 0 0 1 0 .564l-.19.189-.004.003-.622.622a.446.446 0 0 1-.474.112l-.02-.009-.004-.002a.399.399 0 0 1-.057-.037l-.014-.012a.462.462 0 0 1-.064-.069l-.005-.006a.399.399 0 0 1-.02-.032l-.002-.003a.4.4 0 0 1-.043-.118l-.002-.013a.37.37 0 0 1-.005-.052v-.012l.001-.03.001-.009a.399.399 0 0 1 .004-.031l.002-.007a.396.396 0 0 1 .008-.032l.001-.005a.388.388 0 0 1 .028-.068c0-.002.002-.003.003-.005a.402.402 0 0 1 .017-.03l.003-.003a.4.4 0 0 1 .049-.06l.845-.845a.399.399 0 0 1 .563 0zm-10.376.576c.183.259.45.566.807.873 1.242 1.07 2.84 1.464 4.757.814.34.29.37.818.044 1.144L5.061 8.777H3.208a3.18 3.18 0 0 0-1.312-2.99l.044-.19c.413-1.756.897-3.008 1.162-3.299zM22.197 10.5a3.35 3.35 0 0 1-.734.224c-.15.029-.265.042-.324.046H3.69c-1.234 0-2.063-.143-2.559-.37-.1-.045-.176-.09-.233-.132l.238-.694H23.105c-.117.415-.43.713-.908.926z"/>
</svg>
