<svg xmlns="http://www.w3.org/2000/svg" width="24" height="12" viewBox="0 0 24 12">
    <path fill="#33333A" fill-rule="nonzero" d="M23.61 6.26v-.087c-.02-.289-.23-.583-.698-.817-.64-.32-1.71-.502-3.322-.502l-.122.005a6.546 6.546 0 0 1-1.392-.086c-.713-.13-1.148-.382-1.238-.728a.4.4 0 0 0-.217-.261 1.087 1.087 0 0 0-.136-.052 1.024 1.024 0 0 0-.319-.05.704.704 0 0 0-.346.09l-.321-.24a1.551 1.551 0 0 0-.117-.238 1.23 1.23 0 0 0-.116-.162l-.002-.003c-.259-.303-.629-.408-1.028-.202l-.213-.142a1.138 1.138 0 0 0-.086-.175c-.202-.337-.554-.499-.975-.376a1.916 1.916 0 0 1-.202-.124.951.951 0 0 1-.195-.177.958.958 0 0 0-.093-.183c-.205-.316-.564-.433-.934-.224a.618.618 0 0 1-.11-.041c-.173-.08-.362-.244-.559-.524C10.501.437 9.751.033 9.128.036 8.319.039 7.903.66 8.083 1.649c-.063.066-.16.149-.294.235-.491.317-1.205.48-2.194.386a2.735 2.735 0 0 1-.707-.217c-.217-.101-.384-.224-.487-.362-.302-.406-.995-.667-1.643-.674-.8-.01-1.392.389-1.288 1.15.054.398.033.626-.01.722a.398.398 0 0 0-.095.088 4.458 4.458 0 0 0-.483.833C.44 4.773.27 5.83.532 6.916c-.05.045-.1.097-.15.156-.403.474-.495 1.072-.112 1.694l-.042.075c-.226.42-.307.87-.136 1.312.296.767 1.268 1.25 3.018 1.426a.4.4 0 0 0 .3-.094c.04-.034.122-.094.23-.154.19-.107.372-.161.515-.146.182.019.335.152.468.507a.4.4 0 0 0 .427.255c.048-.006.135-.02.256-.038a22.404 22.404 0 0 0 2.687-.6c.53-.159 1.009-.333 1.424-.524a4.89 4.89 0 0 1 .308-.088c.193-.049.381-.083.552-.096.277-.02.462.02.525.09.333.367 1.27.888 2.082 1.119 1.083.307 1.972.145 2.38-.658a.535.535 0 0 1 .191.025c.113.04.198.124.259.302a.4.4 0 0 0 .213.235c.073.032.19.077.343.12a2.6 2.6 0 0 0 1.1.095c.508-.077.93-.34 1.205-.808l.213-.071c.06.038.129.078.205.118.336.177.682.276 1.029.25.497-.04.904-.337 1.162-.888l.368-.245.28-.018a.399.399 0 0 0 .132-.031 3.96 3.96 0 0 0 .98-.632c.997-.861 1.357-2.006.666-3.344zM1.607 4.144a4.417 4.417 0 0 1 .35-.623.701.701 0 0 0 .173-.196c.162-.264.211-.673.13-1.265-.021-.16.11-.25.49-.245.42.005.88.178 1.01.353.192.257.462.455.79.608.357.168.708.254.955.288 1.179.11 2.071-.092 2.717-.509.333-.214.536-.44.635-.61a.399.399 0 0 0 .043-.297C8.74 1.01 8.845.835 9.13.834c.357-.001.864.272 1.085.586.306.434.626.693.928.82l-.907.906a.4.4 0 1 0 .565.564l1.204-1.203c.083.09.181.174.291.253.169.12.334.207.46.262l-.999.998a.4.4 0 0 0 .565.565L13.507 3.4l.507.339.014.007-.818.819a.4.4 0 0 0 .564.564l1.088-1.087c.017.02.036.037.058.053l.738.554a.4.4 0 0 0 .545-.06c.293.519.908.82 1.73.97a7.301 7.301 0 0 0 1.686.092c1.47.001 2.425.164 2.936.42a.78.78 0 0 1 .257.18v.001a5 5 0 0 1-.011.02l-.003.005a10.696 10.696 0 0 1-.333.54 4.926 4.926 0 0 1-.193.27 1.43 1.43 0 0 1-.224.244l-.06.056c-.036.04-.125.126-.269.241-.25.2-.563.403-.942.593-1.126.565-2.504.891-4.154.902h-.166c-1.834-.012-3.999-.409-6.52-1.293a5.189 5.189 0 0 0-.857-.224 12.621 12.621 0 0 0-1.964-.21c-.026 0-.053 0-.08-.002l-.24-.005H6.71c-.08-.002-.162-.003-.245-.002l-.142.002c-.066 0-.132 0-.199.002l-.163.005-.188.006-.214.01-.147.008c-.084.004-.17.01-.255.016l-.116.008-.264.021-.118.01c-.097.008-.195.018-.294.028l-.098.01-.296.033-.106.012c-.143.004-.39-.019-.739-.094a7.316 7.316 0 0 1-.827-.233l-.03-.011a9.004 9.004 0 0 1-.62-.24 11.75 11.75 0 0 1-.27-.118l-.045-.02a.395.395 0 0 0-.006-.03c-.244-.922-.105-1.832.28-2.668zM22.423 9a3.487 3.487 0 0 1-.717.475l-.312.02a.399.399 0 0 0-.196.067l-.554.369a.399.399 0 0 0-.148.182c-.145.355-.318.491-.536.508-.171.014-.38-.046-.596-.16a1.772 1.772 0 0 1-.263-.165.4.4 0 0 0-.375-.067l-.554.184a.4.4 0 0 0-.235.207c-.15.317-.377.473-.685.519-.234.035-.5.004-.762-.072a2.705 2.705 0 0 1-.096-.03 1.17 1.17 0 0 0-.68-.615 1.379 1.379 0 0 0-.856-.006.4.4 0 0 0-.251.247c-.174.494-.681.612-1.505.379-.68-.193-1.486-.642-1.71-.888-.269-.296-.675-.385-1.173-.349a4.026 4.026 0 0 0-.69.118 4.432 4.432 0 0 0-.416.125c-.407.186-.852.347-1.348.496a21.822 21.822 0 0 1-2.531.568c-.239-.435-.581-.678-.996-.721-.337-.035-.669.064-.99.243a2.606 2.606 0 0 0-.213.134c-1.377-.158-2.043-.5-2.199-.903-.072-.187-.031-.412.095-.646.051-.096.102-.167.13-.198a.4.4 0 0 0 .005-.513c-.32-.39-.297-.66-.076-.918a.874.874 0 0 1 .017-.02c.345.159.674.291.986.4l.066.023.029.01c.308.103.598.184.87.243.417.09.731.118.939.11 2.147-.257 3.8-.205 5.03.034.225.043.413.089.566.134.088.026.141.045.162.053 2.632.923 4.91 1.337 6.855 1.342 1.828.005 3.364-.351 4.626-.984.714-.36 1.181-.725 1.425-.992.11-.09.222-.212.342-.367.073-.094.149-.2.226-.315.14.678-.135 1.245-.706 1.739z"/>
</svg>
