<svg xmlns="http://www.w3.org/2000/svg" width="20" height="20" viewBox="0 0 20 20">
    <g fill="none" fill-rule="evenodd">
        <circle cx="10" cy="10" r="10" fill="#D0021B"/>
        <g fill="#FFF" fill-rule="nonzero">
            <path d="M13.64 5.836h-1.383v-.9a.322.322 0 0 0-.327-.32c-.017 0-.03.005-.035.011a.044.044 0 0 0-.023-.012H8.573a.317.317 0 0 0-.321.322v.899h-1.39a.698.698 0 0 0-.706.706V7.698h.613v6.58c0 .398.303.701.7.701h5.565a.693.693 0 0 0 .706-.7v-6.58h.607V6.541a.698.698 0 0 0-.706-.706zm-4.746-.578h2.715v.578H8.894v-.578zm4.198 9.02c0 .041-.018.059-.058.059H7.469c-.04 0-.058-.018-.058-.059v-6.58h5.681v6.58zm.607-7.222H6.804v-.514c0-.04.017-.064.058-.064h6.779c.04 0 .058.023.058.064v.514z"/>
            <path d="M11.428 8.451h.648v5.314h-.648zM9.933 8.451h.648v5.314h-.648zM8.439 8.451h.648v5.314h-.648z"/>
        </g>
    </g>
</svg>
