<svg xmlns="http://www.w3.org/2000/svg" width="19" height="18" viewBox="0 0 19 18">
    <g fill="#4099D5" fill-rule="nonzero" stroke="#4099D5">
        <path d="M17.758 8.804a.492.492 0 0 0-.494.494v4.497a2.218 2.218 0 0 1-2.215 2.215H4.204a2.218 2.218 0 0 1-2.215-2.215v-4.57a.492.492 0 0 0-.495-.494.492.492 0 0 0-.494.494v4.57a3.207 3.207 0 0 0 3.204 3.203h10.845a3.207 3.207 0 0 0 3.203-3.203V9.298c0-.27-.22-.494-.494-.494z"/>
        <path d="M6.832 4.996l2.3-2.299v10.028c0 .275.22.495.494.495.275 0 .494-.22.494-.495V2.697l2.3 2.3a.497.497 0 0 0 .348.146.476.476 0 0 0 .347-.147.493.493 0 0 0 0-.699L9.974 1.156a.5.5 0 0 0-.348-.147.479.479 0 0 0-.348.147L6.137 4.297a.493.493 0 1 0 .695.7z"/>
    </g>
</svg>
