<svg xmlns="http://www.w3.org/2000/svg" width="18" height="20" viewBox="0 0 18 20">
    <g fill="none" fill-rule="evenodd">
        <g fill="#4099D5" fill-rule="nonzero">
            <path d="M6.922 8.4a.55.55 0 0 0-.76-.026L4.425 9.999l-.733-.746a.55.55 0 0 0-.76-.026.552.552 0 0 0 0 .772l1.113 1.12a.493.493 0 0 0 .38.16.548.548 0 0 0 .38-.16l2.117-1.972a.5.5 0 0 0 0-.746zM14.27 9.756H8.23c-.29 0-.525.205-.525.457s.236.457.526.457h6.038c.29 0 .526-.205.526-.457s-.236-.457-.526-.457zM6.922 4.139a.55.55 0 0 0-.76-.027L4.425 5.737l-.733-.746a.55.55 0 0 0-.76-.026.552.552 0 0 0 0 .772l1.113 1.12a.493.493 0 0 0 .38.16.548.548 0 0 0 .38-.16l2.117-1.972a.5.5 0 0 0 0-.746zM14.27 5.495H8.23c-.29 0-.525.204-.525.456s.236.457.526.457h6.038c.29 0 .526-.205.526-.457s-.236-.456-.526-.456zM6.922 12.662a.55.55 0 0 0-.76-.026L4.425 14.26l-.733-.746a.55.55 0 0 0-.76-.027.552.552 0 0 0 0 .773l1.113 1.12a.493.493 0 0 0 .38.16.548.548 0 0 0 .38-.16l2.117-1.973a.5.5 0 0 0 0-.746zM14.27 13.714H8.23c-.29 0-.525.204-.525.456 0 .253.236.457.526.457h6.038c.29 0 .526-.204.526-.457 0-.252-.236-.456-.526-.456z"/>
        </g>
        <rect width="17" height="19" x=".5" y=".5" stroke="#4099D5" rx="2"/>
    </g>
</svg>
