<svg xmlns="http://www.w3.org/2000/svg" width="16" height="16" viewBox="0 0 16 16">
    <g fill="#33333A" fill-rule="evenodd">
        <path fill-rule="nonzero" d="M13.512 3.28h-.432v-.916C13.08 1.061 11.963 0 10.592 0H5.37C4 0 2.882 1.061 2.882 2.364v.916h-.394C1.116 3.28 0 4.34 0 5.644v3.813c0 1.304 1.116 2.365 2.488 2.365h.39v2.997c0 .65.559 1.181 1.242 1.181h7.714c.684 0 1.242-.53 1.242-1.18v-2.998h.436c1.372 0 2.488-1.061 2.488-2.365V5.644c0-1.303-1.116-2.364-2.488-2.364zM3.82 2.364c0-.809.695-1.469 1.546-1.469h5.22c.85 0 1.545.66 1.545 1.47v.915H3.82v-.916zm8.314 12.462a.295.295 0 0 1-.3.285H4.12c-.164 0-.3-.129-.3-.285V9.882h8.314v4.944zm2.924-5.365c0 .809-.694 1.469-1.546 1.469h-.432V9.882h.62a.458.458 0 0 0 .472-.448.458.458 0 0 0-.471-.447H2.188a.458.458 0 0 0-.471.447c0 .249.209.448.47.448h.695v1.048h-.394c-.852 0-1.546-.66-1.546-1.47V5.648c0-.809.694-1.469 1.546-1.469h11.024c.852 0 1.546.66 1.546 1.47V9.46z"/>
        <path d="M5.037 12h5.926c.259 0 .466-.162.466-.364 0-.202-.207-.363-.466-.363H5.037c-.259 0-.466.161-.466.363 0 .202.21.364.466.364zM10.967 13.09h-5.93c-.259 0-.466.163-.466.365 0 .202.207.363.466.363h5.926c.259 0 .466-.161.466-.363 0-.202-.207-.364-.462-.364zM13.623 5.09h-.96c-.262 0-.473.163-.473.365 0 .202.21.363.473.363h.96c.262 0 .472-.161.472-.363 0-.202-.21-.364-.472-.364z"/>
    </g>
</svg>
